<?xml version="1.0" standalone="no"?>
<!DOCTYPE svg PUBLIC "-//W3C//DTD SVG 20010904//EN"
 "http://www.w3.org/TR/2001/REC-SVG-20010904/DTD/svg10.dtd">
<svg version="1.0" xmlns="http://www.w3.org/2000/svg"
 width="397.000000pt" height="397.000000pt" viewBox="0 0 397.000000 397.000000"
 preserveAspectRatio="xMidYMid meet">
<metadata>
Created by potrace 1.11, written by Peter Selinger 2001-2013
</metadata>
<g transform="translate(0.000000,397.000000) scale(0.100000,-0.100000)"
fill="#000000" stroke="none">
<path d="M2201 3049 c-2 -24 -29 -32 -34 -11 -4 14 -5 13 -6 -3 -1 -16 -3 -17
-10 -6 -8 12 -12 12 -24 2 -12 -9 -16 -9 -19 0 -3 9 -9 9 -26 0 -15 -8 -22 -8
-22 -1 0 8 -6 8 -20 0 -15 -8 -20 -8 -20 1 0 8 -5 7 -17 -2 -15 -12 -16 -12
-8 1 6 12 5 13 -5 3 -11 -10 -16 -9 -27 5 -12 16 -13 16 -7 0 5 -14 1 -16 -23
-12 -21 3 -24 2 -13 -6 12 -8 13 -11 1 -19 -9 -6 -10 -10 -2 -16 9 -5 9 -11
-1 -23 -7 -9 -8 -13 -2 -9 6 4 16 -5 23 -21 10 -22 10 -25 0 -14 -7 6 -17 12
-21 12 -4 0 6 -13 22 -29 17 -15 30 -38 30 -50 0 -11 4 -21 9 -21 4 0 7 -11 6
-24 -2 -18 1 -23 11 -19 8 3 14 1 14 -5 0 -6 -6 -13 -12 -15 -7 -3 -2 -6 11
-6 20 -1 22 -4 13 -13 -15 -15 -16 -31 0 -22 8 5 9 2 5 -10 -4 -9 -3 -15 2
-12 5 3 15 -2 22 -11 12 -15 12 -16 -6 -10 -20 7 -20 7 -1 -8 11 -8 21 -22 22
-31 1 -9 11 -25 21 -37 10 -11 13 -17 6 -14 -6 4 -14 3 -18 -3 -3 -5 0 -10 8
-10 16 0 30 -27 22 -40 -3 -5 3 -14 14 -20 12 -6 18 -18 16 -30 -2 -11 0 -20
6 -20 5 0 9 -9 9 -21 0 -11 4 -18 9 -15 5 3 11 -3 14 -13 4 -15 1 -18 -12 -14
-10 4 -7 -1 7 -13 12 -10 24 -30 27 -43 3 -14 11 -29 19 -33 9 -5 13 -15 10
-22 -3 -8 -1 -17 5 -20 6 -4 8 -13 5 -20 -3 -8 0 -17 7 -22 8 -5 10 -3 4 6 -6
9 -4 11 4 6 7 -5 10 -14 7 -21 -3 -8 2 -19 10 -26 8 -7 13 -18 10 -26 -3 -7
-1 -13 5 -13 6 0 7 -4 4 -10 -3 -5 -1 -10 5 -10 7 0 9 -7 6 -16 -3 -8 -2 -12
4 -9 6 3 10 -3 10 -14 0 -11 5 -23 11 -27 6 -3 8 -18 5 -33 -3 -14 -3 -20 0
-13 9 20 27 14 21 -7 -3 -12 1 -22 9 -25 8 -3 14 -16 14 -30 0 -13 7 -27 16
-30 8 -3 13 -10 10 -15 -3 -5 1 -14 9 -21 7 -6 11 -18 8 -26 -3 -8 0 -14 7
-14 7 0 10 -8 7 -20 -3 -11 -1 -20 5 -20 5 0 6 -4 3 -10 -3 -5 0 -10 9 -10 8
0 13 -8 12 -17 -2 -10 1 -21 5 -24 14 -8 18 -69 5 -69 -7 0 -7 -3 -1 -8 17
-12 13 -115 -5 -130 -8 -8 -10 -11 -3 -8 6 4 14 2 18 -4 3 -5 0 -10 -7 -10 -8
0 -9 -3 -3 -8 11 -8 16 -123 5 -117 -4 3 -4 -14 0 -37 7 -34 5 -45 -8 -56 -10
-7 -12 -11 -5 -8 6 4 14 2 18 -4 3 -5 0 -10 -7 -10 -8 0 -9 -3 -3 -8 13 -9 16
-72 3 -72 -5 0 -6 5 -2 12 5 7 3 8 -5 4 -9 -6 -8 -13 5 -27 10 -11 12 -19 6
-19 -7 0 -12 -5 -12 -11 0 -5 3 -8 8 -6 4 3 7 -12 7 -33 0 -21 -3 -36 -7 -33
-5 2 -8 -1 -8 -6 0 -6 4 -11 9 -11 5 0 7 -9 4 -20 -3 -13 0 -20 8 -20 12 0 12
-2 0 -9 -11 -7 -9 -10 8 -16 11 -3 21 -11 21 -18 0 -8 -3 -8 -12 1 -7 7 -16
12 -22 12 -5 0 -1 -6 9 -14 13 -9 27 -11 42 -5 18 6 23 5 23 -7 0 -8 6 -17 14
-20 9 -4 13 -15 10 -31 -3 -18 -1 -23 8 -17 8 5 7 1 -2 -11 -9 -11 -10 -16 -2
-11 8 5 12 1 13 -11 0 -10 3 -13 6 -5 2 6 9 12 14 12 6 0 7 -4 4 -10 -3 -5 -1
-10 4 -10 6 0 11 7 11 15 0 18 16 20 26 3 5 -7 3 -8 -6 -3 -9 5 -11 4 -6 -4 5
-7 13 -8 23 -2 9 5 29 5 45 0 17 -5 26 -4 23 2 -4 5 -1 9 5 9 6 0 8 5 4 13 -6
9 -5 9 8 0 8 -7 19 -9 23 -5 5 4 5 1 1 -6 -4 -6 -3 -12 3 -12 5 0 11 6 14 13
3 9 8 9 18 -2 12 -12 12 -13 0 -6 -10 5 -12 4 -7 -4 5 -7 13 -8 23 -2 9 4 25
6 36 3 15 -4 18 -2 12 9 -5 8 -5 11 0 7 14 -13 44 11 40 32 -2 12 0 18 6 15 5
-4 7 -11 4 -16 -4 -5 -2 -9 3 -9 14 0 5 92 -10 101 -10 7 -10 9 0 9 6 0 12 7
12 15 0 8 5 15 10 15 6 0 10 5 10 11 0 5 -4 8 -9 4 -5 -3 -13 0 -17 6 -4 8 -9
7 -15 -2 -5 -8 -9 -9 -9 -3 0 6 8 18 17 25 14 12 16 12 8 0 -5 -10 -4 -12 4
-7 6 4 9 12 6 17 -4 5 0 9 7 9 7 0 2 7 -11 16 -16 12 -20 19 -12 27 17 17 13
26 -10 22 -12 -3 -19 -1 -15 2 6 7 29 13 53 15 7 1 10 5 7 9 -2 4 -13 6 -23 4
-10 -2 -18 3 -18 10 0 8 4 12 9 9 7 -5 12 18 9 39 0 4 5 7 11 7 7 0 2 7 -11
16 -16 12 -20 19 -12 27 17 17 13 26 -10 22 -12 -3 -19 -1 -15 2 6 7 29 13 53
15 7 1 10 5 7 9 -2 4 -13 6 -23 4 -10 -2 -18 3 -18 10 0 8 4 12 9 9 9 -6 9 -7
11 61 1 28 5 55 9 61 4 6 4 14 1 18 -4 4 -8 16 -10 28 -2 12 -8 25 -14 29 -6
3 -1 9 11 12 12 3 19 10 15 16 -3 6 -3 17 2 24 11 18 13 38 2 31 -5 -3 -7 -9
-4 -14 3 -4 -3 -14 -13 -21 -15 -12 -16 -12 -6 1 6 8 10 22 9 32 -2 12 4 15
23 13 l25 -3 -24 19 c-22 17 -23 18 -3 13 24 -6 41 10 23 22 -8 5 -9 3 -4 -6
5 -9 4 -11 -4 -6 -6 4 -9 12 -5 17 3 5 10 7 15 4 12 -8 32 44 26 67 -3 10 0
21 5 25 6 3 8 1 5 -4 -4 -6 -1 -13 6 -16 7 -3 12 4 12 18 0 15 -5 21 -15 18
-8 -2 -6 1 5 7 24 13 50 50 36 50 -6 0 -14 -8 -20 -17 -9 -16 -10 -16 -8 4 0
12 5 19 9 17 4 -3 8 -1 8 5 0 6 8 7 18 4 14 -6 15 -4 4 9 -10 13 -10 18 -1 24
8 5 9 3 4 -6 -5 -9 -4 -11 3 -6 7 4 8 15 2 30 -7 20 -6 23 16 20 13 -1 22 2
18 7 -3 5 -10 7 -15 4 -5 -4 -9 -1 -9 4 0 6 9 11 20 11 11 0 20 5 20 11 0 5
-5 7 -12 3 -7 -5 -9 -2 -5 8 3 9 0 21 -6 28 -9 10 -9 11 1 6 7 -4 15 -1 18 8
3 9 11 13 17 9 6 -4 8 0 4 10 -4 12 -1 17 11 17 10 0 13 3 7 8 -19 13 -11 37
10 34 11 -2 17 -1 13 3 -4 4 -3 17 3 28 8 15 8 18 -1 12 -9 -6 -9 -2 -1 14 7
11 14 21 17 21 3 0 3 -4 -1 -9 -3 -5 -1 -12 4 -15 5 -4 8 2 7 11 -2 10 2 22 8
26 7 5 5 7 -6 5 -9 -2 -16 2 -15 7 1 6 10 9 20 9 10 -1 15 1 12 4 -3 3 3 14
12 25 10 11 12 17 6 13 -7 -4 -13 -2 -13 3 0 6 5 11 10 11 6 0 10 4 10 10 0 5
-8 7 -17 4 -14 -5 -15 -4 -4 4 8 6 10 15 5 23 -6 10 -3 10 11 -1 17 -14 18
-13 13 7 -4 13 -1 26 4 30 6 3 8 2 5 -4 -3 -5 0 -10 8 -10 10 0 11 5 5 17 -7
13 -4 24 10 40 17 20 19 40 4 40 -3 0 -2 -5 2 -12 4 -7 3 -8 -4 -4 -20 12 -13
28 8 21 21 -7 28 10 8 18 -7 3 -3 6 10 6 12 1 22 6 22 12 0 5 -4 8 -8 5 -4 -2
-14 0 -22 6 -12 8 -12 9 3 4 9 -3 17 -1 17 5 0 6 6 7 13 3 6 -4 3 3 -8 16
l-20 23 30 -19 c25 -15 28 -16 17 -2 -11 14 -10 18 5 26 10 6 14 14 9 19 -5 4
-11 2 -13 -4 -3 -7 -11 -13 -19 -13 -11 0 -10 4 4 18 9 11 21 17 26 14 5 -3 7
4 4 16 -4 15 -2 19 8 15 8 -3 14 -1 14 5 0 6 -6 13 -12 15 -10 4 -10 6 0 6 6
1 12 6 12 12 0 5 -5 7 -12 3 -7 -4 -8 -3 -4 4 4 6 14 8 24 5 15 -6 15 -5 3 11
-13 16 -13 17 4 14 13 -2 19 4 22 26 3 23 1 27 -12 22 -10 -3 -14 -2 -10 5 4
5 14 9 23 8 30 -3 35 1 23 15 -29 35 -18 64 16 43 9 -5 11 -3 7 6 -3 8 -21 17
-39 19 -28 3 -32 1 -23 -10 9 -11 7 -11 -15 -1 -17 7 -23 17 -20 27 5 11 2 13
-8 8 -8 -4 -5 0 5 8 11 9 16 16 10 16 -5 0 -3 4 5 9 8 5 15 21 17 35 1 15 -1
24 -5 22 -4 -3 -13 5 -21 17 -12 21 -12 21 6 7 13 -10 16 -10 7 0 -7 7 -25 15
-40 16 -22 3 -25 1 -13 -7 12 -9 12 -10 -3 -5 -10 3 -21 6 -23 6 -3 0 -2 6 2
13 4 6 -2 4 -13 -6 -15 -13 -23 -15 -28 -7 -6 9 -10 9 -16 -1 -7 -12 -9 -12
-9 0 0 11 -3 11 -17 0 -11 -10 -14 -10 -9 -1 8 13 -6 17 -17 5 -4 -3 -18 -7
-32 -8 -19 0 -25 5 -26 20 0 14 -2 16 -6 5 -10 -24 -27 -31 -35 -12 -6 15 -7
14 -7 -3 -1 -16 -3 -17 -10 -6 -8 12 -12 12 -24 2 -10 -7 -16 -8 -19 -2 -4 12
-48 3 -48 -10 0 -15 -38 -48 -46 -41 -5 4 -2 -1 5 -10 11 -15 11 -18 0 -18
-11 0 -11 -2 1 -10 8 -5 10 -10 5 -10 -6 0 -16 -15 -23 -32 -7 -18 -18 -41
-23 -50 -5 -10 -9 -25 -9 -33 0 -9 -7 -18 -15 -21 -11 -5 -13 -10 -5 -19 8
-10 8 -15 -1 -21 -8 -5 -9 -3 -4 6 6 9 4 11 -4 5 -7 -4 -11 -15 -8 -25 3 -11
-1 -21 -8 -24 -7 -2 -11 -16 -10 -30 2 -15 -2 -24 -8 -23 -7 1 -11 -6 -11 -15
1 -10 -2 -18 -8 -18 -5 0 -6 -5 -2 -12 5 -8 2 -9 -11 -4 -16 6 -16 4 -4 -11
12 -15 12 -16 -5 -10 -15 6 -17 5 -7 -7 9 -11 9 -15 -1 -18 -7 -3 -13 -15 -13
-29 0 -14 -5 -23 -13 -21 -10 2 -10 -2 -1 -19 8 -15 8 -19 0 -15 -10 6 -15 -6
-12 -26 0 -5 -3 -8 -9 -8 -5 0 -6 -8 -3 -17 5 -13 2 -15 -12 -10 -15 6 -16 5
-5 -8 10 -12 10 -15 0 -15 -8 0 -10 -3 -7 -7 4 -3 -1 -12 -11 -20 -10 -9 -11
-12 -2 -7 10 5 8 -1 -5 -16 -12 -14 -14 -20 -5 -15 12 7 13 6 3 -7 -7 -8 -9
-18 -5 -23 4 -4 -4 -5 -18 -2 -24 6 -24 5 -6 -8 11 -8 15 -15 9 -15 -7 0 -15
5 -18 10 -4 6 -11 8 -16 5 -5 -4 -4 6 1 21 9 24 9 25 -5 14 -13 -11 -14 -10
-10 3 4 8 1 18 -5 22 -6 4 -8 16 -4 27 4 13 2 18 -4 14 -5 -3 -13 2 -17 12
-13 29 -14 42 -2 42 7 0 6 4 -3 9 -8 6 -17 8 -20 6 -4 -2 -7 2 -7 10 0 8 4 12
9 9 13 -8 9 6 -6 21 -7 8 -17 11 -22 7 -5 -4 -2 1 5 11 12 15 11 17 -5 18 -11
0 -13 3 -7 6 10 3 9 9 -3 20 -8 9 -13 24 -11 35 3 11 1 16 -6 11 -6 -4 -8 0
-4 10 4 11 1 17 -8 17 -9 0 -12 6 -9 15 4 8 1 15 -5 15 -6 0 -11 9 -11 21 0
13 -4 18 -12 13 -10 -6 -10 -4 0 7 14 16 16 33 2 24 -5 -3 -10 3 -10 14 0 12
-4 21 -10 21 -5 0 -10 5 -10 11 0 5 6 7 13 4 6 -4 1 3 -13 15 -14 12 -19 19
-12 15 6 -3 12 -1 12 4 0 6 -4 11 -10 11 -5 0 -10 7 -10 16 0 9 -5 12 -12 8
-10 -6 -10 -5 -1 7 8 10 9 19 1 29 -8 12 -9 11 -4 -5 5 -17 3 -16 -13 5 -11
13 -19 27 -18 30 1 3 -4 15 -11 27 -11 20 -10 22 5 17 11 -2 9 0 -4 7 -12 6
-29 26 -37 43 -9 17 -16 25 -16 19 0 -20 -30 -15 -30 4 0 15 -1 15 -13 -2 -11
-14 -16 -15 -22 -5 -6 10 -9 9 -16 -1 -7 -11 -9 -11 -9 -1 0 9 -5 10 -19 2
-16 -8 -20 -6 -24 13 -2 12 -5 15 -6 6z m1142 -354 c-7 -21 -12 -19 -10 4 0
11 5 18 9 15 4 -3 5 -11 1 -19z m27 -25 c0 -5 -2 -10 -4 -10 -3 0 -8 5 -11 10
-3 6 -1 10 4 10 6 0 11 -4 11 -10z m-70 -136 c0 -8 -19 -13 -24 -6 -3 5 1 9 9
9 8 0 15 -2 15 -3z m-35 -24 c3 -5 1 -10 -4 -10 -6 0 -11 5 -11 10 0 6 2 10 4
10 3 0 8 -4 11 -10z m-41 -38 c3 -5 -1 -9 -9 -9 -8 0 -12 4 -9 9 3 4 7 8 9 8
2 0 6 -4 9 -8z m-59 -150 c-3 -3 -11 0 -18 7 -9 10 -8 11 6 5 10 -3 15 -9 12
-12z m70 -22 c-3 -5 -12 -10 -18 -10 -7 0 -6 4 3 10 19 12 23 12 15 0z m-61
-8 c2 -4 -4 -8 -14 -8 -10 0 -16 4 -14 8 3 4 9 8 14 8 5 0 11 -4 14 -8z m-44
-42 c0 -5 -5 -10 -11 -10 -5 0 -7 5 -4 10 3 6 8 10 11 10 2 0 4 -4 4 -10z
m-105 -260 c3 -5 1 -10 -4 -10 -6 0 -11 5 -11 10 0 6 2 10 4 10 3 0 8 -4 11
-10z m-35 -120 c0 -5 -5 -10 -11 -10 -5 0 -7 5 -4 10 3 6 8 10 11 10 2 0 4 -4
4 -10z m0 -40 c0 -5 -2 -10 -4 -10 -3 0 -8 5 -11 10 -3 6 -1 10 4 10 6 0 11
-4 11 -10z m-40 -40 c0 -5 -2 -10 -4 -10 -3 0 -8 5 -11 10 -3 6 -1 10 4 10 6
0 11 -4 11 -10z m35 -20 c3 -5 1 -10 -4 -10 -6 0 -11 5 -11 10 0 6 2 10 4 10
3 0 8 -4 11 -10z m-80 -69 c3 -5 2 -12 -3 -15 -5 -3 -9 1 -9 9 0 17 3 19 12 6z
m32 -87 c-3 -3 -12 -4 -19 -1 -8 3 -5 6 6 6 11 1 17 -2 13 -5z m-12 -64 c-3
-5 -1 -11 5 -15 6 -4 8 -11 5 -16 -11 -17 -22 -9 -20 14 1 12 -3 29 -9 37 -10
13 -9 13 6 1 10 -7 16 -17 13 -21z m5 -266 c0 -2 -7 -4 -15 -4 -8 0 -15 4 -15
10 0 5 7 7 15 4 8 -4 15 -8 15 -10z m0 -160 c0 -2 -7 -4 -15 -4 -8 0 -15 4
-15 10 0 5 7 7 15 4 8 -4 15 -8 15 -10z m-7 -69 c-3 -9 -8 -14 -10 -11 -3 3
-2 9 2 15 9 16 15 13 8 -4z m-344 -68 c8 -10 7 -14 -2 -14 -8 0 -14 6 -14 14
0 7 1 13 2 13 2 0 8 -6 14 -13z m312 -34 c13 -16 12 -17 -3 -4 -17 13 -22 21
-14 21 2 0 10 -8 17 -17z m-87 -29 c3 -8 2 -12 -4 -9 -6 3 -10 10 -10 16 0 14
7 11 14 -7z m46 10 c0 -8 -19 -13 -24 -6 -3 5 1 9 9 9 8 0 15 -2 15 -3z"/>
<path d="M587 3033 c3 -10 2 -15 -2 -10 -5 4 -18 -1 -29 -10 -12 -10 -15 -11
-8 -3 6 8 12 19 12 24 0 6 -7 0 -16 -12 -8 -12 -12 -27 -9 -32 3 -6 2 -10 -4
-10 -6 0 -7 -7 -4 -17 4 -11 3 -14 -6 -9 -9 6 -9 3 1 -13 11 -18 11 -23 -2
-31 -8 -5 -10 -10 -4 -10 7 0 11 -19 11 -45 0 -26 -4 -45 -11 -45 -8 0 -8 -2
0 -8 14 -9 26 -54 12 -46 -6 4 -8 -2 -3 -15 4 -13 1 -29 -7 -38 -7 -9 -8 -14
-2 -10 7 4 14 0 17 -8 4 -10 1 -12 -11 -9 -9 2 -7 -1 5 -7 12 -6 24 -20 26
-31 5 -17 9 -18 27 -8 18 9 21 9 15 0 -5 -9 -1 -10 16 -5 22 7 23 7 9 -10 -9
-11 -10 -16 -2 -11 7 4 12 1 12 -9 0 -9 -5 -13 -11 -9 -8 5 -8 1 0 -14 8 -15
8 -22 -2 -25 -9 -4 -9 -6 1 -6 7 -1 10 -6 6 -12 -5 -8 -1 -8 14 0 23 12 52 5
48 -12 -1 -7 -1 -9 1 -4 3 4 9 5 13 2 5 -3 12 0 16 6 5 8 3 9 -7 4 -11 -7 -12
-6 -2 7 7 8 9 19 5 23 -4 5 -1 5 6 1 7 -4 10 -11 7 -16 -3 -5 3 -14 14 -20 15
-8 23 -7 33 4 11 12 15 11 25 -8 7 -11 12 -15 13 -8 0 7 4 11 9 7 5 -3 12 -1
16 4 3 6 -4 8 -16 6 -12 -2 -19 -1 -15 2 10 10 56 12 51 2 -8 -12 18 -17 37
-8 12 7 20 4 27 -8 9 -16 10 -15 11 6 0 24 1 24 14 6 8 -11 12 -24 8 -30 -3
-5 1 -5 9 2 11 9 14 7 14 -13 0 -14 -6 -24 -15 -25 -10 0 -11 -2 -2 -6 6 -2
12 -14 12 -24 0 -13 -4 -18 -12 -13 -6 4 -5 -2 3 -13 20 -29 18 -335 -2 -360
-10 -11 -10 -14 -1 -9 14 8 16 -1 13 -59 -2 -22 -8 -46 -14 -54 -9 -12 -9 -13
1 -7 14 8 16 -1 13 -59 -2 -22 -8 -46 -14 -54 -9 -12 -9 -13 1 -7 12 7 15 -1
14 -39 -2 -42 -2 -81 -1 -105 1 -14 1 -41 0 -60 -2 -19 -1 -44 2 -54 2 -11 1
-36 -3 -57 -4 -23 -3 -43 4 -50 8 -9 7 -10 -7 -6 -15 6 -16 4 -6 -14 10 -19 9
-20 -11 -9 -13 7 -20 8 -16 2 3 -5 -1 -13 -10 -16 -12 -5 -15 -2 -10 11 6 14
5 15 -5 6 -10 -10 -16 -10 -28 0 -12 9 -13 9 -7 -1 8 -13 -19 -13 -41 1 -6 4
-15 2 -19 -4 -5 -8 -3 -9 7 -4 8 5 10 4 6 0 -10 -11 -37 -15 -37 -6 0 4 6 13
13 21 6 8 3 7 -9 -3 -16 -13 -23 -14 -34 -4 -10 9 -11 9 -6 -1 8 -13 -19 -13
-41 1 -6 4 -15 2 -19 -4 -5 -8 -3 -9 7 -4 8 5 10 4 6 0 -10 -11 -37 -15 -37
-6 0 4 6 13 13 20 6 8 0 6 -14 -3 -18 -11 -37 -15 -64 -10 -24 3 -35 2 -31 -5
4 -5 1 -13 -5 -17 -8 -4 -9 -3 -5 4 4 7 3 12 -1 12 -11 0 -34 -60 -27 -71 3
-5 -3 -6 -13 -2 -16 6 -16 5 -4 -10 7 -9 10 -17 5 -17 -5 0 -2 -5 6 -10 8 -5
10 -10 3 -10 -6 0 -9 -9 -5 -22 4 -15 2 -19 -7 -13 -7 4 -5 -5 5 -21 14 -22
15 -26 3 -17 -13 11 -15 10 -14 -5 1 -9 6 -25 10 -36 5 -12 3 -21 -6 -27 -10
-6 -10 -9 -1 -9 6 0 12 -7 12 -16 0 -8 -4 -13 -8 -10 -5 3 -9 -1 -9 -9 0 -8 3
-14 6 -13 21 2 22 -4 5 -18 -10 -8 -14 -13 -7 -9 7 3 17 -5 24 -17 11 -21 11
-22 -5 -9 -14 12 -16 12 -10 -3 6 -15 20 -18 82 -19 12 0 20 -2 17 -5 -3 -3 3
-14 12 -25 17 -19 17 -20 -5 -8 -12 6 -22 16 -22 21 0 6 -5 10 -12 10 -6 0 -3
-9 8 -21 20 -22 26 -60 11 -70 -5 -4 -4 -10 2 -13 6 -4 11 -3 11 3 0 6 7 8 15
5 8 -4 13 -9 11 -13 -3 -4 4 -7 14 -8 10 -1 21 5 24 12 3 9 14 12 28 9 13 -3
31 -6 41 -6 9 1 15 -3 12 -9 -4 -5 -1 -9 4 -9 6 0 11 7 11 15 0 18 16 20 26 3
5 -7 3 -8 -6 -3 -9 5 -11 4 -6 -4 5 -7 13 -8 24 -2 9 5 26 5 39 0 24 -9 34 5
11 14 -8 4 -7 6 3 6 9 1 19 -6 23 -14 6 -17 26 -20 26 -4 0 5 -4 8 -8 5 -5 -3
-9 1 -9 9 0 8 5 11 11 7 19 -11 119 -24 176 -22 8 0 25 0 38 0 16 0 21 4 16
13 -5 9 -4 9 7 0 7 -7 20 -13 28 -13 11 0 11 3 -4 13 -14 11 -15 16 -5 22 9 5
11 4 6 -3 -4 -7 -1 -12 8 -12 9 0 16 -4 16 -10 0 -5 7 -10 15 -10 8 0 15 -6
16 -12 0 -7 7 1 14 17 8 17 14 23 15 14 0 -20 22 -30 40 -19 7 5 24 4 37 -1
23 -9 34 5 11 14 -8 4 -7 6 3 6 9 1 19 -6 23 -14 6 -17 26 -20 26 -4 0 5 -4 8
-8 5 -5 -3 -9 1 -9 9 0 8 5 11 11 7 17 -10 36 -13 98 -17 31 -1 61 -6 66 -9 6
-3 18 1 26 10 16 15 22 7 16 -21 -1 -5 9 0 23 13 18 17 27 20 32 11 5 -7 4
-10 -2 -6 -5 3 -10 0 -10 -8 0 -9 5 -11 11 -7 6 5 20 8 31 7 11 0 27 3 36 7 8
3 21 3 29 -2 18 -11 53 7 44 22 -4 7 -3 8 5 4 6 -4 9 -12 6 -17 -4 -5 4 -9 17
-9 18 0 20 2 8 10 -13 8 -12 10 3 10 9 0 18 -6 18 -12 1 -7 4 1 8 17 8 34 3
58 -10 49 -5 -3 -6 2 -3 10 3 9 10 13 15 10 5 -3 6 2 3 10 -3 9 -11 13 -18 9
-6 -4 -5 1 3 10 7 9 11 30 9 47 -3 19 0 31 10 35 11 4 12 8 3 19 -7 8 -11 29
-10 47 1 19 -2 43 -7 54 -7 18 -6 19 12 5 18 -14 18 -14 3 5 -9 11 -19 27 -22
35 -4 12 -6 12 -6 -2 -1 -11 -6 -15 -16 -12 -8 4 -12 10 -9 15 3 5 0 9 -7 9
-8 0 -7 5 2 17 8 9 9 14 3 10 -7 -4 -15 0 -18 9 -3 8 -2 12 3 9 5 -3 12 -1 16
5 3 5 1 10 -4 10 -6 0 -11 7 -11 16 0 9 5 13 13 9 6 -4 2 2 -9 12 -12 10 -24
25 -27 33 -4 11 -6 9 -7 -5 -1 -18 -2 -18 -11 4 -7 18 -12 21 -22 12 -10 -8
-17 -7 -27 2 -10 9 -11 9 -6 -1 10 -16 -33 -10 -43 7 -6 10 -10 9 -14 -4 -5
-11 -3 -14 6 -9 6 4 8 3 4 -1 -14 -16 -39 -14 -33 2 5 12 3 13 -7 5 -10 -9
-17 -8 -27 1 -10 9 -11 9 -6 -1 8 -13 -19 -13 -41 1 -6 4 -15 2 -19 -4 -5 -8
-3 -9 7 -4 8 5 10 4 6 0 -10 -11 -37 -15 -37 -6 0 4 6 13 13 21 6 8 3 7 -9 -3
-16 -13 -23 -14 -34 -4 -7 7 -10 7 -7 1 4 -7 -2 -11 -17 -11 -12 0 -23 5 -24
11 -3 36 -11 51 -27 49 -11 -1 -14 2 -7 9 7 7 18 6 33 -3 24 -12 24 -12 6 9
-13 14 -15 22 -7 27 8 5 7 12 -4 24 -10 11 -12 21 -6 31 13 21 12 33 -2 24 -6
-4 -8 -3 -4 4 3 6 2 13 -4 17 -5 3 -10 11 -10 16 0 6 7 3 16 -5 14 -14 34 -14
34 0 0 3 -5 2 -11 -2 -8 -4 -9 1 -4 17 4 17 3 20 -3 10 -10 -14 -20 -5 -16 17
1 6 2 16 3 22 0 5 9 6 18 3 15 -6 16 -5 3 9 -14 15 -17 15 -35 0 -20 -17 -20
-17 -2 4 9 11 14 24 10 29 -5 4 -3 5 3 2 7 -4 14 3 16 18 4 20 3 23 -8 14 -10
-8 -14 -8 -14 -1 0 6 5 14 10 17 17 10 11 28 -6 21 -14 -5 -15 -4 -4 9 7 8 16
12 21 9 5 -3 6 2 3 11 -4 9 -13 14 -20 11 -7 -3 -16 -1 -19 5 -4 5 -1 8 5 7 6
-2 17 12 25 29 13 30 12 33 -3 34 -11 0 -12 2 -4 6 7 2 17 14 23 26 10 21 10
21 -5 3 -13 -17 -18 -18 -29 -6 -7 8 -8 10 -1 7 7 -4 14 0 18 8 3 8 2 15 -3
15 -4 0 -8 7 -8 15 0 12 3 12 15 2 13 -10 14 -9 4 10 -17 31 -15 38 6 22 14
-11 15 -11 5 1 -7 8 -13 22 -13 33 0 11 -4 15 -12 11 -6 -4 -8 -3 -4 4 3 6 2
13 -4 17 -5 3 -10 11 -10 16 0 6 7 3 16 -5 8 -9 21 -16 27 -16 8 0 8 3 -1 8
-7 5 -10 17 -6 28 4 14 3 15 -4 5 -10 -14 -20 -5 -16 17 1 6 2 17 3 23 0 5 5
7 11 4 6 -3 7 1 4 10 -6 14 -9 14 -28 -2 -21 -18 -21 -18 -3 3 9 11 14 24 10
29 -5 4 -3 5 3 2 7 -4 14 3 16 18 4 20 3 23 -8 14 -10 -8 -14 -8 -14 -1 0 6 5
14 10 17 17 10 11 28 -6 21 -14 -5 -15 -4 -4 9 7 8 16 12 21 9 5 -3 6 2 3 11
-4 9 -13 14 -20 11 -7 -3 -16 -1 -19 5 -4 5 -1 8 5 7 6 -2 17 11 25 28 13 32
13 34 -22 91 -11 17 -7 25 29 61 43 44 53 49 63 32 4 -6 -1 -7 -12 -4 -13 4
-14 3 -5 -4 8 -5 25 -8 40 -6 15 1 32 -2 38 -7 8 -7 14 -6 19 1 5 8 11 8 21
-1 11 -9 14 -9 14 1 0 8 3 10 7 7 3 -4 15 1 25 10 15 13 21 14 31 4 9 -10 8
-11 -8 -6 -16 6 -17 5 -5 -4 11 -7 21 -6 38 5 18 12 27 13 36 4 8 -8 6 -9 -9
-4 -21 8 -21 6 9 -16 15 -11 18 -12 12 -1 -7 10 0 12 33 8 22 -2 38 0 35 4 -3
5 0 9 5 9 6 0 11 -4 11 -8 0 -5 6 -9 14 -9 16 0 10 24 -7 30 -7 2 2 2 18 -1
24 -3 28 -2 18 9 -7 7 -13 18 -13 23 0 6 5 4 11 -4 9 -13 10 -12 5 2 -3 10 -1
20 4 23 9 6 8 24 -3 42 -4 6 -3 15 3 18 8 5 8 11 0 20 -8 10 -8 15 0 20 8 5 8
10 0 20 -8 10 -8 15 0 20 8 5 7 11 -1 22 -10 12 -10 16 2 24 11 7 12 9 0 9
-10 0 -12 9 -8 35 3 19 1 37 -4 41 -5 3 -7 9 -4 13 2 5 -6 6 -19 4 -15 -3 -25
1 -29 12 -4 9 -3 14 1 11 4 -2 8 8 7 24 0 15 -3 26 -7 23 -5 -2 -8 4 -8 13 0
10 -8 27 -17 38 -17 20 -17 20 0 7 9 -8 20 -11 24 -7 3 3 1 6 -6 6 -7 0 -10 4
-6 9 3 6 -8 8 -25 6 -23 -3 -30 0 -30 13 -1 15 -2 15 -11 -1 -8 -14 -14 -16
-25 -6 -11 9 -14 8 -14 -2 0 -12 -2 -12 -9 0 -7 10 -13 11 -30 2 -15 -8 -21
-9 -21 -1 0 6 -5 8 -12 3 -20 -12 -38 -12 -38 -1 0 6 -7 4 -17 -3 -11 -10 -14
-10 -9 -1 4 6 3 12 -3 12 -5 0 -13 -5 -16 -11 -5 -6 -12 -4 -21 8 -13 17 -14
17 -7 -2 5 -16 4 -18 -8 -9 -24 18 -48 24 -55 12 -4 -7 -3 -8 4 -4 7 4 12 2
12 -3 0 -6 -10 -9 -22 -7 -13 3 -27 5 -31 5 -5 1 -5 7 -1 14 4 6 -2 4 -13 -6
-15 -13 -23 -15 -28 -7 -6 9 -10 9 -16 -1 -7 -12 -9 -12 -9 0 0 11 -3 11 -17
0 -11 -10 -14 -10 -9 -1 4 6 3 12 -3 12 -5 0 -13 -5 -16 -10 -4 -7 -13 -7 -26
0 -13 8 -19 7 -19 0 0 -6 -7 -4 -16 4 -19 20 -25 20 -18 3 3 -9 -2 -13 -18
-11 -13 1 -27 3 -31 3 -5 1 -5 7 -1 14 4 6 -2 4 -13 -6 -15 -13 -23 -15 -28
-7 -6 9 -10 9 -16 -1 -7 -12 -9 -12 -9 0 0 11 -3 11 -17 0 -11 -10 -14 -10 -9
-1 8 13 -6 17 -18 5 -3 -4 -16 -7 -27 -8 -14 -1 -18 3 -14 14 4 11 1 10 -15
-4 -15 -14 -20 -15 -20 -4 0 11 -2 11 -10 -1 -6 -10 -10 -11 -10 -2 0 6 -5 12
-11 12 -5 0 -7 -4 -4 -10 3 -6 -1 -7 -9 -4 -9 3 -13 11 -9 18 3 6 -3 3 -14 -7
-15 -13 -23 -15 -28 -7 -6 9 -10 9 -16 -1 -7 -12 -9 -12 -9 0 0 11 -3 11 -17
0 -11 -10 -14 -10 -9 -1 8 13 -6 17 -18 5 -3 -4 -16 -7 -27 -8 -14 -1 -18 3
-14 14 4 11 1 10 -15 -4 -15 -14 -20 -15 -20 -4 0 11 -2 11 -10 -1 -6 -10 -10
-11 -10 -2 0 6 -5 12 -11 12 -5 0 -7 -4 -4 -10 3 -6 -1 -7 -9 -4 -9 3 -13 11
-9 18 3 6 -3 3 -14 -7 -11 -9 -23 -14 -27 -10 -11 11 -36 12 -36 1 0 -5 -7 -2
-16 6 -20 21 -25 20 -17 -1z m1228 -103 c3 -5 1 -10 -4 -10 -6 0 -11 5 -11 10
0 6 2 10 4 10 3 0 8 -4 11 -10z m53 -77 c2 -7 -1 -13 -8 -13 -6 0 -9 4 -5 9 3
5 -3 12 -12 15 -15 4 -15 5 1 3 11 -1 21 -8 24 -14z m-3 -63 c3 -5 1 -10 -4
-10 -6 0 -11 5 -11 10 0 6 2 10 4 10 3 0 8 -4 11 -10z m5 -55 c-8 -9 -8 -15 0
-20 8 -5 8 -10 0 -20 -8 -10 -8 -15 0 -20 8 -5 8 -11 1 -19 -6 -7 -8 -16 -4
-20 11 -11 12 -35 2 -42 -10 -6 -11 -4 -13 98 -1 62 1 75 11 66 10 -8 10 -14
3 -23z m-980 -125 c0 -5 -5 -10 -11 -10 -5 0 -7 5 -4 10 3 6 8 10 11 10 2 0 4
-4 4 -10z m900 6 c0 -3 -4 -8 -10 -11 -5 -3 -10 -1 -10 4 0 6 5 11 10 11 6 0
10 -2 10 -4z m-1126 -47 c3 -3 -4 -5 -14 -6 -11 -1 -20 2 -20 7 0 8 25 8 34
-1z m181 1 c3 -5 1 -10 -4 -10 -6 0 -11 5 -11 10 0 6 2 10 4 10 3 0 8 -4 11
-10z m49 -2 c-3 -4 -9 -8 -15 -8 -5 0 -9 4 -9 8 0 5 7 9 15 9 8 0 12 -4 9 -9z
m36 2 c0 -5 -5 -10 -11 -10 -5 0 -7 5 -4 10 3 6 8 10 11 10 2 0 4 -4 4 -10z
m555 0 c3 -5 1 -10 -4 -10 -6 0 -11 5 -11 10 0 6 2 10 4 10 3 0 8 -4 11 -10z
m45 0 c0 -5 -5 -10 -11 -10 -5 0 -7 5 -4 10 3 6 8 10 11 10 2 0 4 -4 4 -10z
m35 0 c3 -5 1 -10 -4 -10 -6 0 -11 5 -11 10 0 6 2 10 4 10 3 0 8 -4 11 -10z
m45 -2 c0 -4 -4 -8 -9 -8 -6 0 -12 4 -15 8 -3 5 1 9 9 9 8 0 15 -4 15 -9z
m115 3 c3 -5 2 -12 -3 -15 -5 -3 -9 1 -9 9 0 17 3 19 12 6z m-962 -42 c-8 -8
-13 -7 -18 2 -5 8 -4 10 3 5 7 -4 12 -2 12 5 0 7 3 9 7 6 4 -4 2 -12 -4 -18z
m1040 6 c-3 -9 -8 -14 -10 -11 -3 3 -2 9 2 15 9 16 15 13 8 -4z m-913 1 c0 -3
-4 -8 -10 -11 -5 -3 -10 -1 -10 4 0 6 5 11 10 11 6 0 10 -2 10 -4z m555 -6 c3
-5 1 -10 -4 -10 -6 0 -11 5 -11 10 0 6 2 10 4 10 3 0 8 -4 11 -10z m127 -4 c7
4 8 2 4 -5 -9 -13 -26 -5 -25 12 0 9 2 8 6 -1 2 -6 10 -9 15 -6z m38 4 c0 -5
-4 -10 -10 -10 -5 0 -10 5 -10 10 0 6 5 10 10 10 6 0 10 -4 10 -10z m-197
-147 c-5 -12 -3 -14 8 -8 8 5 11 4 6 0 -4 -5 -14 -10 -22 -11 -12 -2 -12 2 -5
17 13 23 22 25 13 2z m-2 -356 c-6 -8 -7 -18 -3 -22 4 -5 1 -5 -6 -1 -10 6
-10 11 -1 22 6 8 14 14 16 14 3 0 0 -6 -6 -13z m3 -613 c3 -8 2 -12 -4 -9 -6
3 -10 10 -10 16 0 14 7 11 14 -7z m430 -210 c3 -8 2 -12 -4 -9 -6 3 -10 10
-10 16 0 14 7 11 14 -7z m11 -53 c-9 -8 -36 -10 -30 -2 2 4 11 8 20 8 8 0 13
-3 10 -6z m10 -61 c-27 -12 -43 -12 -25 0 8 5 22 9 30 9 10 0 8 -3 -5 -9z m-5
-56 c0 -8 -19 -13 -24 -6 -3 5 1 9 9 9 8 0 15 -2 15 -3z m-750 -78 c0 -3 -4
-8 -10 -11 -5 -3 -10 -1 -10 4 0 6 5 11 10 11 6 0 10 -2 10 -4z m480 0 c0 -3
-4 -8 -10 -11 -5 -3 -10 -1 -10 4 0 6 5 11 10 11 6 0 10 -2 10 -4z m-181 -19
c8 -10 7 -14 -2 -14 -8 0 -14 6 -14 14 0 7 1 13 2 13 2 0 8 -6 14 -13z m-737
-43 c9 -18 8 -18 -5 -2 -8 10 -16 15 -19 12 -4 -3 -9 -1 -12 4 -3 6 1 9 10 8
9 -1 21 -11 26 -22z m102 18 c2 -4 -4 -8 -14 -8 -10 0 -16 4 -14 8 3 4 9 8 14
8 5 0 11 -4 14 -8z m916 4 c0 -3 -4 -8 -10 -11 -5 -3 -10 -1 -10 4 0 6 5 11
10 11 6 0 10 -2 10 -4z m77 -3 c-4 -3 -1 -13 6 -22 11 -14 10 -14 -5 -2 -16
12 -16 31 -1 31 4 0 3 -3 0 -7z m-757 -13 c0 -5 -2 -10 -4 -10 -3 0 -8 5 -11
10 -3 6 -1 10 4 10 6 0 11 -4 11 -10z m92 -4 c7 4 8 2 4 -5 -9 -13 -26 -5 -25
12 0 9 2 8 6 -1 2 -6 10 -9 15 -6z m388 4 c0 -5 -2 -10 -4 -10 -3 0 -8 5 -11
10 -3 6 -1 10 4 10 6 0 11 -4 11 -10z m92 -4 c7 4 8 2 4 -5 -9 -13 -26 -5 -25
12 0 9 2 8 6 -1 2 -6 10 -9 15 -6z m45 -8 c-3 -8 -6 -5 -6 6 -1 11 2 17 5 13
3 -3 4 -12 1 -19z m113 8 c0 -2 -7 -6 -15 -10 -8 -3 -15 -1 -15 4 0 6 7 10 15
10 8 0 15 -2 15 -4z"/>
<path d="M2360 3023 c0 -6 8 -17 18 -24 16 -13 16 -13 2 6 -8 11 -16 22 -17
24 -2 2 -3 0 -3 -6z"/>
<path d="M3465 2851 c-3 -5 -1 -12 5 -16 5 -3 10 1 10 9 0 18 -6 21 -15 7z"/>
<path d="M3420 2689 c0 -5 5 -7 10 -4 6 3 10 8 10 11 0 2 -4 4 -10 4 -5 0 -10
-5 -10 -11z"/>
<path d="M650 2515 c-11 -13 -10 -14 4 -9 9 3 16 10 16 15 0 13 -6 11 -20 -6z"/>
<path d="M1411 2467 c-8 -10 -7 -19 4 -33 8 -10 15 -17 16 -14 10 45 0 70 -20
47z"/>
<path d="M3295 2431 c-3 -5 -2 -12 3 -15 5 -3 9 1 9 9 0 17 -3 19 -12 6z"/>
<path d="M1430 2329 c0 -5 5 -7 10 -4 6 3 10 8 10 11 0 2 -4 4 -10 4 -5 0 -10
-5 -10 -11z"/>
<path d="M3125 2071 c-3 -5 0 -13 6 -17 7 -4 9 -3 5 4 -3 5 0 13 6 15 9 4 10
6 1 6 -6 1 -14 -3 -18 -8z"/>
<path d="M2390 1890 c0 -5 5 -10 11 -10 5 0 7 5 4 10 -3 6 -8 10 -11 10 -2 0
-4 -4 -4 -10z"/>
<path d="M1430 1849 c0 -5 5 -7 10 -4 6 3 10 8 10 11 0 2 -4 4 -10 4 -5 0 -10
-5 -10 -11z"/>
<path d="M1425 1540 c-3 -6 1 -7 9 -4 18 7 21 14 7 14 -6 0 -13 -4 -16 -10z"/>
<path d="M521 1361 c-8 -5 -9 -11 -3 -15 5 -3 12 1 16 9 6 17 6 18 -13 6z"/>
<path d="M2928 1313 c7 -3 16 -2 19 1 4 3 -2 6 -13 5 -11 0 -14 -3 -6 -6z"/>
<path d="M2928 1153 c7 -3 16 -2 19 1 4 3 -2 6 -13 5 -11 0 -14 -3 -6 -6z"/>
<path d="M2907 896 c-15 -12 -15 -14 -2 -19 8 -4 14 -1 12 6 -1 7 4 11 11 9 8
-1 11 2 7 8 -8 12 -6 12 -28 -4z"/>
<path d="M704 882 c4 -3 14 -7 22 -8 9 -1 13 0 10 4 -4 3 -14 7 -22 8 -9 1
-13 0 -10 -4z"/>
</g>
</svg>
