<?xml version="1.0" standalone="no"?>
<!DOCTYPE svg PUBLIC "-//W3C//DTD SVG 20010904//EN"
 "http://www.w3.org/TR/2001/REC-SVG-20010904/DTD/svg10.dtd">
<svg version="1.0" xmlns="http://www.w3.org/2000/svg"
 width="290.000000pt" height="290.000000pt" viewBox="0 0 290.000000 290.000000"
 preserveAspectRatio="xMidYMid meet">
<metadata>
Created by potrace 1.11, written by Peter Selinger 2001-2013
</metadata>
<g transform="translate(0.000000,290.000000) scale(0.100000,-0.100000)"
fill="#000000" stroke="none">
<path d="M98 2894 c-5 -4 -8 -14 -8 -23 0 -9 -14 -25 -30 -36 -35 -23 -37 -31
-12 -39 64 -21 46 -142 -23 -154 -28 -5 -32 -12 -8 -12 35 0 74 -48 71 -87 -2
-33 -42 -88 -57 -79 -4 3 -13 1 -21 -5 -12 -7 -11 -9 5 -10 11 -1 23 -1 27 0
13 2 48 -52 48 -75 0 -39 -21 -72 -54 -85 -28 -11 -29 -13 -9 -16 27 -5 63
-52 63 -82 0 -30 -21 -71 -37 -71 -7 0 -13 -4 -13 -10 0 -5 -7 -7 -15 -4 -8 4
-15 1 -15 -5 0 -6 9 -11 19 -11 26 0 61 -46 61 -80 0 -34 -35 -80 -61 -80 -10
0 -19 -5 -19 -11 0 -5 5 -7 10 -4 6 4 24 -8 41 -25 27 -27 31 -36 26 -67 -7
-39 -37 -73 -67 -76 -10 -1 -16 -5 -13 -10 3 -4 7 -6 10 -3 3 3 19 -2 34 -11
59 -35 41 -141 -27 -153 l-29 -6 25 -7 c39 -11 61 -33 66 -66 8 -49 -28 -99
-71 -101 -14 -1 -9 -6 16 -16 35 -14 59 -48 59 -80 0 -31 -34 -73 -64 -80
l-31 -7 31 -9 c44 -11 67 -50 59 -98 -6 -33 -13 -42 -48 -59 -33 -16 -37 -21
-19 -21 26 0 68 -41 69 -67 2 -30 -18 -84 -28 -78 -5 4 -9 1 -9 -4 0 -6 -9
-11 -19 -11 -11 0 -22 -4 -25 -9 -4 -5 2 -8 11 -7 10 2 30 -9 45 -25 21 -22
26 -35 23 -64 -4 -42 -33 -75 -67 -75 -19 0 -18 -3 12 -18 59 -29 75 -84 38
-135 -12 -16 -27 -23 -63 -27 -6 0 4 -7 22 -15 75 -32 82 -118 13 -153 l-38
-19 33 -12 c37 -13 58 -51 50 -91 -5 -29 -48 -70 -73 -71 -9 0 -1 -7 20 -15
34 -15 61 -54 61 -90 0 -21 5 -17 22 20 15 32 53 54 80 47 11 -3 37 -9 45 -10
12 -2 39 -59 32 -66 -4 -5 -1 -5 6 -1 7 4 10 12 7 17 -4 5 -2 9 4 9 5 0 12 9
16 19 8 27 52 40 91 28 33 -10 71 -68 58 -89 -4 -7 -2 -8 5 -4 6 4 10 15 7 24
-7 21 24 62 49 67 11 2 21 4 23 5 18 15 77 -19 87 -50 4 -11 11 -20 16 -20 6
0 8 4 5 9 -10 16 50 67 79 67 37 0 85 -46 86 -83 1 -28 1 -28 9 5 15 64 69 93
122 66 31 -16 39 -26 49 -68 l7 -31 1 31 c1 42 41 77 86 77 41 0 69 -25 84
-74 l9 -34 1 33 c1 41 36 75 80 78 39 3 90 -44 92 -84 1 -20 2 -22 6 -7 2 11
6 30 9 42 6 29 58 57 91 48 34 -8 72 -51 66 -74 -3 -10 0 -22 5 -25 6 -3 8 2
6 11 -3 10 4 32 15 49 22 36 68 50 107 32 27 -12 58 -73 47 -91 -3 -6 -1 -7 6
-3 6 4 9 18 7 31 -5 28 29 64 68 71 34 6 83 -22 91 -53 3 -13 10 -23 16 -23 6
0 8 4 4 9 -9 15 38 61 68 67 44 7 86 -23 94 -68 3 -21 9 -38 14 -38 5 0 6 7 3
15 -10 24 15 71 42 84 41 18 65 13 100 -24 32 -34 45 -43 43 -27 -4 22 4 33
32 47 39 21 82 12 108 -21 20 -25 29 -30 33 -16 5 20 39 43 69 48 40 7 89 -25
89 -57 0 -10 5 -19 10 -19 6 0 10 9 10 19 0 25 46 61 77 61 40 0 83 -37 83
-70 0 -16 4 -31 9 -34 5 -4 7 3 4 13 -7 29 26 78 61 89 22 7 25 10 11 11 -24
1 -59 45 -61 74 -1 12 5 35 12 51 7 17 13 28 14 23 0 -4 10 -1 23 7 12 7 30
12 40 11 9 -2 15 1 12 5 -3 5 -14 7 -25 5 -26 -5 -70 35 -76 69 -9 49 28 95
78 97 l33 1 -37 10 c-44 12 -70 38 -74 75 -5 50 31 92 80 93 35 0 31 7 -6 12
-55 8 -86 59 -68 113 10 32 33 47 85 58 15 4 13 5 -7 6 -37 1 -78 40 -84 78
-4 26 1 38 25 64 17 17 37 29 44 26 8 -3 20 -1 28 4 10 6 7 9 -13 9 -16 0 -30
-1 -33 -2 -2 -2 -16 13 -30 32 -43 58 -17 123 56 140 l34 8 -31 1 c-33 1 -69
29 -79 61 -15 48 40 112 88 104 11 -1 16 0 13 4 -4 3 -19 8 -33 10 -49 6 -76
53 -64 113 3 17 42 50 60 52 24 1 15 13 -14 19 -11 2 -29 19 -39 39 -17 31
-18 40 -7 66 13 31 52 57 83 56 10 0 15 3 13 8 -3 4 -15 6 -26 4 -12 -3 -31 6
-48 23 -23 22 -28 34 -25 64 4 46 34 78 77 79 l32 1 -34 8 c-65 15 -96 78 -63
129 22 35 31 40 67 42 l30 1 -35 9 c-50 14 -82 53 -76 92 6 36 41 71 76 75 14
2 27 6 30 9 3 3 -7 3 -22 1 -16 -3 -28 -2 -28 3 0 4 -9 10 -19 14 -20 6 -32
30 -37 72 -3 32 47 83 83 84 25 1 24 2 -10 10 -21 5 -44 15 -52 22 -21 21 -26
77 -9 102 18 27 68 50 85 39 8 -4 10 -3 5 5 -4 7 -15 11 -24 10 -44 -5 -85 46
-76 95 5 32 38 67 64 69 10 1 16 5 14 9 -3 5 -10 6 -15 3 -14 -9 -77 57 -74
78 2 9 -1 17 -6 17 -5 0 -9 -7 -9 -15 0 -25 -46 -65 -74 -65 -54 0 -97 43 -87
85 2 6 -1 6 -6 2 -4 -5 -8 -12 -9 -15 -2 -23 -30 -61 -48 -66 -54 -15 -116 14
-116 54 0 10 -5 22 -12 26 -6 4 -8 3 -5 -3 19 -31 -40 -83 -95 -83 -25 0 -68
47 -68 74 -1 17 -4 15 -14 -10 -35 -79 -130 -84 -158 -8 l-11 32 -20 -39 c-10
-21 -24 -39 -31 -40 -6 0 -20 -2 -31 -5 -36 -7 -73 16 -89 54 -12 30 -21 31
-18 1 2 -16 -48 -50 -78 -54 -26 -3 -39 2 -61 25 -16 16 -29 37 -29 47 0 10
-9 -1 -21 -24 -12 -24 -28 -43 -38 -44 -9 0 -26 -2 -38 -5 -25 -4 -83 47 -83
73 0 22 -10 11 -15 -17 -4 -19 -28 -47 -45 -50 -34 -8 -48 -6 -72 8 -16 9 -32
30 -37 47 l-8 30 -8 -25 c-8 -26 -41 -59 -59 -61 -6 0 -19 -2 -30 -4 -23 -4
-85 54 -79 75 2 8 -2 4 -9 -10 -27 -52 -61 -73 -92 -58 -14 8 -17 7 -10 -4 6
-10 5 -11 -8 -1 -8 7 -18 10 -21 6 -4 -3 -7 1 -7 10 0 10 -4 17 -9 17 -5 0
-14 12 -19 28 -6 15 -11 21 -11 15 -2 -22 -4 -27 -27 -50 -43 -43 -115 -28
-138 29 l-13 30 -13 -32 c-15 -36 -65 -62 -92 -48 -10 5 -18 6 -18 3 0 -10
-35 31 -47 55 -6 14 -12 18 -12 10 -1 -8 -11 -27 -24 -42 -20 -23 -30 -26 -66
-24 -31 2 -47 10 -59 27 -9 13 -17 27 -17 31 0 3 -3 10 -8 14 -4 4 -7 1 -7 -7
0 -22 -43 -66 -65 -67 -38 -1 -83 19 -88 38 -3 11 -13 20 -22 20 -9 0 -14 -4
-11 -9 8 -13 -29 -42 -61 -47 -35 -5 -90 27 -95 56 -2 12 -6 18 -10 14z"/>
<path d="M2241 14 c0 -11 3 -14 6 -6 3 7 2 16 -1 19 -3 4 -6 -2 -5 -13z"/>
<path d="M2415 20 c-3 -5 -1 -10 4 -10 6 0 11 5 11 10 0 6 -2 10 -4 10 -3 0
-8 -4 -11 -10z"/>
<path d="M1880 10 c0 -5 5 -10 11 -10 5 0 7 5 4 10 -3 6 -8 10 -11 10 -2 0 -4
-4 -4 -10z"/>
<path d="M2595 10 c-3 -5 -1 -10 4 -10 6 0 11 5 11 10 0 6 -2 10 -4 10 -3 0
-8 -4 -11 -10z"/>
</g>
</svg>
